# xmcd CD database file
#
# Track frame offsets:
#	150
#	12810
#	25780
#	40455
#	67115
#	86260
#	103455
#	122452
#	149547
#	169387
#	183937
#	194760
#	215300
#	233380
#	257337
#	279967
#
# Disc length: 4002 seconds
#
# Revision: 2
# Processed by: cddbd v1.5.2PL0 Copyright (c) Steve Scherf et al.
# Submitted via: CDex 1.50Beta7
#
DISCID=dc0fa010
DTITLE=Various Artist - Amazing Voice 1 Disk 2
DYEAR=2000
DGENRE=New Age
TTITLE0=G. Kelly - Sabhal La'n Ic Uisdean
TTITLE1=Iris Malitha - Ajde Jano
TTITLE2=Shelby Moore - Only If
TTITLE3=M. Kia - The River Is Dlowing
TTITLE4=Laurie - Mahk Jchi
TTITLE5=Andrea Green - Ce Train Quisen Ba
TTITLE6=Annie Pratt - Quand Je Pense A Tol
TTITLE7=Lauren Russell - Alegria
TTITLE8=Bernice F. - Milagre
TTITLE9=Erica Davis - Moon I A Harsh Mistress
TTITLE10=Susan Mckcown - The Crocodile Tango
TTITLE11=P. Mann - Aspente Le Stelle
TTITLE12=Valerie Schmidt and Hobb - Just Show Me How To Live You
TTITLE13=A. Beaucharmp - Cancao Do Mar
TTITLE14=S. Diffie - Gateved Gate
TTITLE15=M. Vasquez - Kyrie
EXTD=YEAR: 2000
EXTT0=
EXTT1=
EXTT2=
EXTT3=
EXTT4=
EXTT5=
EXTT6=
EXTT7=
EXTT8=
EXTT9=
EXTT10=
EXTT11=
EXTT12=
EXTT13=
EXTT14=
EXTT15=
PLAYORDER=
